<svg width="72" height="72" viewBox="0 0 72 72" fill="none" xmlns="http://www.w3.org/2000/svg">
<path fill-rule="evenodd" clip-rule="evenodd" d="M36 2.25C18.417 2.25 3.75 15.129 3.75 31.5C3.75 45.3045 14.2095 56.6505 28.005 59.844C28.047 60.567 28.0895 61.216 28.1325 61.791C28.3965 65.2665 30.717 68.229 34.3815 68.8485C35.2005 68.988 36.1515 69.123 37.254 69.2445C37.5683 69.2791 37.8864 69.247 38.1875 69.1504C38.4886 69.0537 38.766 68.8947 39.0015 68.6837C39.237 68.4727 39.4254 68.2144 39.5544 67.9256C39.6833 67.6369 39.75 67.3242 39.75 67.008V63C39.75 62.4033 39.9871 61.831 40.409 61.409C40.831 60.987 41.4033 60.75 42 60.75C42.5967 60.75 43.169 60.987 43.591 61.409C44.0129 61.831 44.25 62.4033 44.25 63V67.4925C44.25 68.0851 44.4837 68.6538 44.9005 69.0751C45.3173 69.4963 45.8834 69.7362 46.476 69.7425C48.001 69.759 49.5262 69.7505 51.051 69.717C51.6389 69.7037 52.1981 69.4607 52.6091 69.0402C53.0201 68.6197 53.2502 68.055 53.25 67.467V63C53.25 62.4033 53.4871 61.831 53.909 61.409C54.331 60.987 54.9033 60.75 55.5 60.75C56.0967 60.75 56.669 60.987 57.091 61.409C57.5129 61.831 57.75 62.4033 57.75 63V66.822C57.7501 67.1436 57.8192 67.4615 57.9526 67.7541C58.086 68.0468 58.2806 68.3075 58.5232 68.5186C58.7659 68.7297 59.051 68.8863 59.3593 68.9779C59.6676 69.0695 59.992 69.0939 60.3105 69.0495C60.7795 68.9845 61.2155 68.9175 61.6185 68.8485C65.283 68.229 67.6035 65.268 67.866 61.791C68.067 59.142 68.25 55.0155 68.25 48.75V30C68.249 29.79 68.2215 29.5885 68.1675 29.3955C66.966 14.031 52.827 2.25 36 2.25ZM63.75 34.5C63.75 30.3705 61.0335 27.75 58.5 27.75C55.9665 27.75 53.25 30.3705 53.25 34.5C53.25 38.6295 55.968 41.25 58.5 41.25C61.032 41.25 63.75 38.6295 63.75 34.5ZM32.25 34.5C32.25 30.585 35.1165 27.75 38.25 27.75C41.3835 27.75 44.25 30.585 44.25 34.5C44.25 38.415 41.3835 41.25 38.25 41.25C35.1165 41.25 32.25 38.415 32.25 34.5Z" fill="white"/>
</svg>
