<svg width="402" height="874" viewBox="0 0 402 874" fill="none" xmlns="http://www.w3.org/2000/svg">
<rect width="402" height="874" fill="#101010"/>
<path fill-rule="evenodd" clip-rule="evenodd" d="M201 301.25C183.417 301.25 168.75 314.129 168.75 330.5C168.75 344.304 179.21 355.65 193.005 358.844C193.047 359.567 193.089 360.216 193.132 360.791C193.396 364.266 195.717 367.229 199.382 367.848C200.2 367.988 201.152 368.123 202.254 368.244C202.568 368.279 202.886 368.247 203.188 368.15C203.489 368.054 203.766 367.895 204.001 367.684C204.237 367.473 204.425 367.214 204.554 366.926C204.683 366.637 204.75 366.324 204.75 366.008V362C204.75 361.403 204.987 360.831 205.409 360.409C205.831 359.987 206.403 359.75 207 359.75C207.597 359.75 208.169 359.987 208.591 360.409C209.013 360.831 209.25 361.403 209.25 362V366.492C209.25 367.085 209.484 367.654 209.901 368.075C210.317 368.496 210.883 368.736 211.476 368.742C213.001 368.759 214.526 368.751 216.051 368.717C216.639 368.704 217.198 368.461 217.609 368.04C218.02 367.62 218.25 367.055 218.25 366.467V362C218.25 361.403 218.487 360.831 218.909 360.409C219.331 359.987 219.903 359.75 220.5 359.75C221.097 359.75 221.669 359.987 222.091 360.409C222.513 360.831 222.75 361.403 222.75 362V365.822C222.75 366.144 222.819 366.461 222.953 366.754C223.086 367.047 223.281 367.307 223.523 367.519C223.766 367.73 224.051 367.886 224.359 367.978C224.668 368.069 224.992 368.094 225.311 368.049C225.78 367.984 226.215 367.917 226.618 367.848C230.283 367.229 232.604 364.268 232.866 360.791C233.067 358.142 233.25 354.015 233.25 347.75V329C233.249 328.79 233.221 328.588 233.167 328.395C231.966 313.031 217.827 301.25 201 301.25ZM228.75 333.5C228.75 329.37 226.034 326.75 223.5 326.75C220.966 326.75 218.25 329.37 218.25 333.5C218.25 337.629 220.968 340.25 223.5 340.25C226.032 340.25 228.75 337.629 228.75 333.5ZM197.25 333.5C197.25 329.585 200.117 326.75 203.25 326.75C206.383 326.75 209.25 329.585 209.25 333.5C209.25 337.415 206.383 340.25 203.25 340.25C200.117 340.25 197.25 337.415 197.25 333.5Z" fill="white"/>
<path d="M116.568 437.408C113.352 437.408 111.064 436.84 109.704 435.704C108.36 434.568 107.688 432.648 107.688 429.944L107.64 412.4H105.072V408.2H107.784V400.04H113.352V408.2H118.56V412.4H113.208L113.256 430.592C113.256 431.648 113.496 432.36 113.976 432.728C114.456 433.096 115.328 433.28 116.592 433.28C117.056 433.28 117.472 433.272 117.84 433.256C118.224 433.224 118.648 433.2 119.112 433.184V437.168C118.728 437.232 118.328 437.288 117.912 437.336C117.512 437.384 117.064 437.408 116.568 437.408ZM121.863 403.232V398.6H127.983V403.232H121.863ZM122.175 437V408.2H127.671V437H122.175ZM132.581 437V398.6H137.789V405.968L137.189 420.008H138.173L140.765 413.36L143.429 408.2H149.213L143.261 419.456L150.389 437H144.629L139.781 424.976L137.933 427.976V437H132.581ZM149.69 421.856V416.96H166.562V421.856H149.69ZM223.096 421.856V416.96H239.968V421.856H223.096ZM253.631 437.408C250.415 437.408 248.127 436.84 246.767 435.704C245.423 434.568 244.751 432.648 244.751 429.944L244.703 412.4H242.135V408.2H244.847V400.04H250.415V408.2H255.623V412.4H250.271L250.319 430.592C250.319 431.648 250.559 432.36 251.039 432.728C251.519 433.096 252.391 433.28 253.655 433.28C254.119 433.28 254.535 433.272 254.903 433.256C255.287 433.224 255.711 433.2 256.175 433.184V437.168C255.791 437.232 255.391 437.288 254.975 437.336C254.575 437.384 254.127 437.408 253.631 437.408ZM267.614 437.408C265.534 437.408 263.862 437.136 262.598 436.592C261.35 436.048 260.43 435.176 259.838 433.976C259.246 432.776 258.894 431.192 258.782 429.224C258.75 428.424 258.718 427.464 258.686 426.344C258.67 425.208 258.662 424.008 258.662 422.744C258.662 421.48 258.67 420.256 258.686 419.072C258.718 417.888 258.75 416.848 258.782 415.952C258.91 413.968 259.27 412.376 259.862 411.176C260.454 409.976 261.374 409.112 262.622 408.584C263.87 408.056 265.534 407.792 267.614 407.792C269.742 407.792 271.422 408.072 272.654 408.632C273.902 409.176 274.806 410.048 275.366 411.248C275.942 412.448 276.286 414.016 276.398 415.952C276.43 416.8 276.454 417.8 276.47 418.952C276.502 420.088 276.518 421.28 276.518 422.528C276.518 423.76 276.502 424.96 276.47 426.128C276.454 427.296 276.43 428.328 276.398 429.224C276.286 431.192 275.942 432.776 275.366 433.976C274.79 435.176 273.878 436.048 272.63 436.592C271.398 437.136 269.726 437.408 267.614 437.408ZM267.614 433.256C268.798 433.256 269.63 433.032 270.11 432.584C270.59 432.12 270.846 431.44 270.878 430.544C270.926 429.104 270.958 427.728 270.974 426.416C271.006 425.088 271.022 423.792 271.022 422.528C271.022 421.248 271.006 419.96 270.974 418.664C270.958 417.368 270.926 416.024 270.878 414.632C270.846 413.704 270.582 413.024 270.086 412.592C269.606 412.16 268.782 411.944 267.614 411.944C266.462 411.944 265.622 412.176 265.094 412.64C264.582 413.104 264.31 413.784 264.278 414.68C264.246 415.8 264.214 417 264.182 418.28C264.166 419.56 264.158 420.88 264.158 422.24C264.158 423.6 264.166 424.976 264.182 426.368C264.214 427.744 264.262 429.12 264.326 430.496C264.358 431.44 264.622 432.136 265.118 432.584C265.63 433.032 266.462 433.256 267.614 433.256ZM280.894 437V398.6H286.102V405.968L285.502 420.008H286.486L289.078 413.36L291.742 408.2H297.526L291.574 419.456L298.702 437H292.942L288.094 424.976L286.246 427.976V437H280.894Z" fill="white"/>
<path d="M176.048 437.408C174.112 437.408 172.648 436.864 171.656 435.776C170.68 434.672 170.128 432.856 170 430.328C169.952 429.272 169.92 428.064 169.904 426.704C169.888 425.328 169.88 423.92 169.88 422.48C169.896 421.04 169.912 419.664 169.928 418.352C169.944 417.024 169.968 415.864 170 414.872C170.112 412.312 170.688 410.496 171.728 409.424C172.784 408.336 174.256 407.792 176.144 407.792C177.584 407.792 178.68 408.072 179.432 408.632C180.184 409.176 180.872 409.992 181.496 411.08H182.36V398.6H187.952V437H182.36V434.096H181.448C180.84 435.184 180.136 436.008 179.336 436.568C178.552 437.128 177.456 437.408 176.048 437.408ZM178.232 433.352C179.08 433.352 179.896 433.144 180.68 432.728C181.464 432.312 182.024 431.704 182.36 430.904V414.272C182.024 413.472 181.464 412.872 180.68 412.472C179.896 412.056 179.088 411.848 178.256 411.848C177.36 411.848 176.704 412.048 176.288 412.448C175.888 412.848 175.664 413.456 175.616 414.272C175.536 416.08 175.48 417.952 175.448 419.888C175.432 421.808 175.432 423.704 175.448 425.576C175.48 427.432 175.528 429.144 175.592 430.712C175.64 431.656 175.864 432.336 176.264 432.752C176.68 433.152 177.336 433.352 178.232 433.352ZM192.598 403.232V398.6H198.718V403.232H192.598ZM192.91 437V408.2H198.406V437H192.91ZM211.572 437.408C208.532 437.408 206.356 436.824 205.044 435.656C203.748 434.488 203.02 432.608 202.86 430.016C202.828 429.056 202.796 427.928 202.764 426.632C202.748 425.32 202.74 423.96 202.74 422.552C202.74 421.144 202.748 419.8 202.764 418.52C202.796 417.24 202.828 416.152 202.86 415.256C203.036 412.568 203.796 410.656 205.14 409.52C206.484 408.368 208.604 407.792 211.5 407.792C214.428 407.792 216.54 408.36 217.836 409.496C219.132 410.632 219.844 412.48 219.972 415.04C219.988 415.424 219.996 416.096 219.996 417.056C220.012 418 220.012 419.064 219.996 420.248C219.996 421.432 219.972 422.544 219.924 423.584H208.332C208.332 424.704 208.34 425.848 208.356 427.016C208.388 428.168 208.42 429.368 208.452 430.616C208.484 431.576 208.74 432.256 209.22 432.656C209.7 433.04 210.476 433.232 211.548 433.232C212.588 433.232 213.316 433.04 213.732 432.656C214.164 432.256 214.404 431.568 214.452 430.592C214.484 430.112 214.5 429.52 214.5 428.816C214.516 428.096 214.5 427.28 214.452 426.368H219.924C219.956 426.736 219.98 427.304 219.996 428.072C220.012 428.84 220.004 429.488 219.972 430.016C219.844 432.656 219.132 434.552 217.836 435.704C216.556 436.84 214.468 437.408 211.572 437.408ZM208.356 419.648H214.5C214.516 418.928 214.524 418.216 214.524 417.512C214.524 416.792 214.516 416.16 214.5 415.616C214.5 415.072 214.484 414.688 214.452 414.464C214.404 413.536 214.148 412.888 213.684 412.52C213.236 412.136 212.508 411.944 211.5 411.944C210.396 411.944 209.62 412.152 209.172 412.568C208.724 412.968 208.484 413.6 208.452 414.464C208.436 415.344 208.412 416.216 208.38 417.08C208.364 417.944 208.356 418.8 208.356 419.648Z" fill="#E81C1F"/>
</svg>
